# Blender v2.79 (sub 0) OBJ File: ''
# www.blender.org
o Cube_Cube.001
v -0.732769 0.891993 0.732769
v 1.022997 1.349996 -0.165465
v -0.732769 0.891993 -0.732769
v 0.165465 1.349996 1.022997
v 0.732769 0.891993 0.732769
v -0.165465 1.349996 -1.022997
v 0.732769 0.891993 -0.732769
v -1.022997 1.349996 0.165465
v -0.000000 1.964828 0.000000
v -0.000000 2.422831 0.000000
v 0.604450 1.820749 -0.841749
v 0.841749 1.820749 0.604450
v -0.841749 1.820749 -0.604450
v -0.604450 1.820749 0.841749
v -0.000000 2.893584 0.000000
v 0.028936 2.156213 -1.035888
v 1.035888 2.156213 0.028936
v -1.035888 2.156213 -0.028937
v -0.028936 2.156213 1.035888
v -0.000000 3.229048 0.000000
v 0.680681 2.488968 -0.781393
v 0.781393 2.488968 0.680681
v -0.781393 2.488968 -0.680681
v -0.680681 2.488968 0.781393
v -0.000000 3.561803 0.000000
v 0.000000 -0.017472 -0.249247
v 0.000000 0.921211 -0.249247
v 0.124624 -0.017472 -0.215855
v 0.124624 0.921211 -0.215855
v 0.215855 -0.017472 -0.124624
v 0.215855 0.921211 -0.124624
v 0.249247 -0.017472 0.000000
v 0.249247 0.921211 0.000000
v 0.215855 -0.017472 0.124624
v 0.215855 0.921211 0.124624
v 0.124624 -0.017472 0.215855
v 0.124624 0.921211 0.215855
v 0.000000 -0.017472 0.249247
v 0.000000 0.921211 0.249247
v -0.124624 -0.017472 0.215855
v -0.124624 0.921211 0.215855
v -0.215855 -0.017472 0.124624
v -0.215855 0.921211 0.124624
v -0.249247 -0.017472 0.000000
v -0.249247 0.921211 0.000000
v -0.215855 -0.017472 -0.124624
v -0.215855 0.921211 -0.124624
v -0.124624 -0.017472 -0.215855
v -0.124624 0.921211 -0.215855
vt 0.443464 0.434348
vt 0.044358 0.434348
vt 0.243911 0.234795
vt 0.958826 0.420753
vt 0.554440 0.420753
vt 0.756633 0.218560
vt 0.958826 0.016367
vt 0.434676 0.416563
vt 0.045829 0.027716
vt 0.434676 0.027716
vt 0.958706 0.015285
vt 0.554872 0.419119
vt 0.554872 0.015285
vt 0.554440 0.016367
vt 0.044358 0.035241
vt 0.443464 0.035241
vt 0.969532 0.429811
vt 0.551779 0.429811
vt 0.760655 0.220935
vt 0.538227 0.433917
vt 0.961124 0.011019
vt 0.961124 0.433917
vt 0.551779 0.012058
vt 0.969531 0.012058
vt 0.451574 0.432724
vt 0.038229 0.432724
vt 0.244902 0.226051
vt 0.040708 0.018682
vt 0.443296 0.421270
vt 0.040708 0.421270
vt 0.038229 0.019379
vt 0.451574 0.019379
vt 0.950009 0.418423
vt 0.552631 0.418423
vt 0.751320 0.219734
vt 0.545942 0.011431
vt 0.952577 0.418067
vt 0.545942 0.418067
vt 0.552631 0.021045
vt 0.950009 0.021045
vt 0.229863 0.973205
vt 0.159670 0.462523
vt 0.229862 0.462523
vt 0.159670 0.973205
vt 0.089478 0.462523
vt 0.931785 0.973203
vt 0.861590 0.462521
vt 0.931782 0.462520
vt 0.861593 0.973203
vt 0.791398 0.462521
vt 0.791400 0.973204
vt 0.721206 0.462521
vt 0.721208 0.973204
vt 0.651014 0.462522
vt 0.651016 0.973204
vt 0.580822 0.462522
vt 0.580824 0.973205
vt 0.510630 0.462522
vt 0.510632 0.973205
vt 0.440438 0.462523
vt 0.440439 0.973205
vt 0.370246 0.462523
vt 0.485633 0.678580
vt 0.493813 0.670400
vt 0.507982 0.684568
vt 0.370247 0.973205
vt 0.300054 0.462523
vt 0.300055 0.973205
vt 0.530350 0.678580
vt 0.516182 0.692748
vt 0.522170 0.670400
vt 0.045829 0.416563
vt 0.958706 0.419119
vt 0.538226 0.011019
vt 0.443296 0.018682
vt 0.952577 0.011431
vt 0.089478 0.973205
vt 0.504987 0.689754
vt 0.499801 0.692748
vt 0.493813 0.692748
vt 0.488627 0.689754
vt 0.485633 0.684568
vt 0.488627 0.673394
vt 0.499801 0.670400
vt 0.504987 0.673394
vt 0.507982 0.678580
vt 0.510996 0.673394
vt 0.516182 0.670400
vt 0.527356 0.673394
vt 0.530350 0.684568
vt 0.527356 0.689754
vt 0.522170 0.692748
vt 0.510996 0.689754
vt 0.508002 0.684568
vt 0.508002 0.678580
vn 0.4832 0.5640 -0.6696
vn 0.0000 0.5640 -0.8258
vn 0.8258 0.5640 0.0000
vn 0.0000 -1.0000 -0.0000
vn 0.0000 0.5640 0.8258
vn -0.6696 0.5640 -0.4832
vn 0.6696 0.5640 0.4832
vn -0.8258 0.5640 0.0000
vn -0.4832 0.5640 0.6696
vn -0.1337 0.5640 -0.8149
vn -0.8149 0.5640 0.1337
vn 0.8149 0.5640 -0.1337
vn 0.1337 0.5640 0.8149
vn -0.5674 0.5640 -0.6000
vn -0.6000 0.5640 0.5674
vn 0.6000 0.5640 -0.5674
vn 0.5674 0.5640 0.6000
vn -0.0567 0.5640 -0.8238
vn -0.8238 0.5640 0.0567
vn 0.8238 0.5640 -0.0567
vn 0.0567 0.5640 0.8238
vn 0.2588 0.0000 -0.9659
vn 0.7071 0.0000 -0.7071
vn 0.9659 0.0000 -0.2588
vn 0.9659 0.0000 0.2588
vn 0.7071 0.0000 0.7071
vn 0.2588 0.0000 0.9659
vn -0.2588 0.0000 0.9659
vn -0.7071 0.0000 0.7071
vn -0.9659 0.0000 0.2588
vn -0.9659 0.0000 -0.2588
vn 0.0000 1.0000 0.0000
vn -0.7071 0.0000 -0.7071
vn -0.2588 0.0000 -0.9659
s off
f 2/1/1 6/2/1 10/3/1
f 7/4/2 3/5/2 9/6/2
f 9/6/3 5/7/3 7/4/3
f 2/8/4 8/9/4 6/10/4
f 7/11/4 1/12/4 3/13/4
f 5/7/5 9/6/5 1/14/5
f 8/15/6 10/3/6 6/2/6
f 10/3/7 4/16/7 2/1/7
f 1/14/8 9/6/8 3/5/8
f 4/16/9 10/3/9 8/15/9
f 11/17/10 13/18/10 15/19/10
f 13/20/4 12/21/4 14/22/4
f 14/23/11 15/19/11 13/18/11
f 15/19/12 12/24/12 11/17/12
f 12/24/13 15/19/13 14/23/13
f 16/25/14 18/26/14 20/27/14
f 16/28/4 19/29/4 18/30/4
f 19/31/15 20/27/15 18/26/15
f 20/27/16 17/32/16 16/25/16
f 17/32/17 20/27/17 19/31/17
f 21/33/18 23/34/18 25/35/18
f 21/36/4 24/37/4 23/38/4
f 24/39/19 25/35/19 23/34/19
f 25/35/20 22/40/20 21/33/20
f 22/40/21 25/35/21 24/39/21
f 27/41/22 28/42/22 26/43/22
f 29/44/23 30/45/23 28/42/23
f 31/46/24 32/47/24 30/48/24
f 33/49/25 34/50/25 32/47/25
f 35/51/26 36/52/26 34/50/26
f 37/53/27 38/54/27 36/52/27
f 39/55/28 40/56/28 38/54/28
f 41/57/29 42/58/29 40/56/29
f 43/59/30 44/60/30 42/58/30
f 45/61/31 46/62/31 44/60/31
f 43/63/32 39/64/32 31/65/32
f 47/66/33 48/67/33 46/62/33
f 49/68/34 26/43/34 48/67/34
f 32/69/4 40/70/4 28/71/4
f 2/8/4 4/72/4 8/9/4
f 7/11/4 5/73/4 1/12/4
f 13/20/4 11/74/4 12/21/4
f 16/28/4 17/75/4 19/29/4
f 21/36/4 22/76/4 24/37/4
f 27/41/22 29/44/22 28/42/22
f 29/44/23 31/77/23 30/45/23
f 31/46/24 33/49/24 32/47/24
f 33/49/25 35/51/25 34/50/25
f 35/51/26 37/53/26 36/52/26
f 37/53/27 39/55/27 38/54/27
f 39/55/28 41/57/28 40/56/28
f 41/57/29 43/59/29 42/58/29
f 43/59/30 45/61/30 44/60/30
f 45/61/31 47/66/31 46/62/31
f 31/65/32 29/78/32 27/79/32
f 27/79/32 49/80/32 47/81/32
f 47/81/32 45/82/32 43/63/32
f 43/63/32 41/83/32 39/64/32
f 39/64/32 37/84/32 35/85/32
f 35/85/32 33/86/32 39/64/32
f 31/65/32 27/79/32 47/81/32
f 47/81/32 43/63/32 31/65/32
f 39/64/32 33/86/32 31/65/32
f 47/66/33 49/68/33 48/67/33
f 49/68/34 27/41/34 26/43/34
f 48/87/4 26/88/4 28/71/4
f 28/71/4 30/89/4 32/69/4
f 32/69/4 34/90/4 36/91/4
f 36/91/4 38/92/4 32/69/4
f 40/70/4 42/93/4 44/94/4
f 44/94/4 46/95/4 40/70/4
f 48/87/4 28/71/4 40/70/4
f 32/69/4 38/92/4 40/70/4
f 40/70/4 46/95/4 48/87/4
