# Blender v2.79 (sub 0) OBJ File: ''
# www.blender.org
o Cube
v -7.534470 -7.534469 7.534469
v -7.534470 -7.534469 -7.534470
v -7.534469 7.534471 -7.534468
v -7.534469 7.534467 7.534472
v 7.534469 -7.534474 7.534466
v 7.534469 -7.534465 -7.534474
v 7.534470 7.534472 -7.534467
v 7.534470 7.534469 7.534470
vt 0.498422 0.664785
vt 0.254899 0.340892
vt 0.253045 0.666541
vt 0.997430 0.338157
vt 0.737133 0.667484
vt 0.999281 0.664250
vt 0.252773 1.001749
vt 0.496167 0.336356
vt 0.255403 0.002877
vt -0.000212 0.337696
vt 0.000864 0.664607
vt 0.733127 0.337256
vt 0.498000 1.001135
vt 0.496186 0.002638
vn 1.0000 -0.0000 0.0000
vn -1.0000 0.0000 0.0000
vn 0.0000 1.0000 0.0000
vn 0.0000 -0.0000 1.0000
vn 0.0000 -1.0000 -0.0000
vn -0.0000 0.0000 -1.0000
s off
f 2/1/1 4/2/1 1/3/1
f 8/4/2 6/5/2 5/6/2
f 5/7/3 2/1/3 1/3/3
f 6/5/4 3/8/4 2/1/4
f 3/8/5 8/9/5 4/2/5
f 1/3/6 8/10/6 5/11/6
f 2/1/1 3/8/1 4/2/1
f 8/4/2 7/12/2 6/5/2
f 5/7/3 6/13/3 2/1/3
f 6/5/4 7/12/4 3/8/4
f 3/8/5 7/14/5 8/9/5
f 1/3/6 4/2/6 8/10/6
